# xmcd CD database file
#
# Track frame offsets:
#	180
#	19827
#	44620
#	55796
#	71414
#	86778
#	105057
#	119277
#	134535
#	149295
#	164859
#	181621
#	198112
#	213651
#	227774
#
# Disc length: 3231 seconds
#
# Revision: 0
# Processed by: cddbd v1.5.2PL0 Copyright (c) Steve Scherf et al.
# Submitted via: CDex 1.70beta2
#
DISCID=d30c9d0f
DTITLE=The Gamblers - What about a story!
DYEAR=1995
DGENRE=Country
TTITLE0=Lone Star State of mind
TTITLE1=What about a Story
TTITLE2=Against the grain
TTITLE3=Why not me
TTITLE4=Truck drivin' man
TTITLE5=Lookin for love
TTITLE6=Every little thing
TTITLE7=Achy breaky heart
TTITLE8=Daddys hands
TTITLE9=Lonesome town
TTITLE10=Only a dream
TTITLE11=Here some love
TTITLE12=Back on my feet
TTITLE13=Drivin my life away
TTITLE14=Somewhere tonight
EXTD=YEAR: 1995
EXTT0=
EXTT1=
EXTT2=
EXTT3=
EXTT4=
EXTT5=
EXTT6=
EXTT7=
EXTT8=
EXTT9=
EXTT10=
EXTT11=
EXTT12=
EXTT13=
EXTT14=
PLAYORDER=
